<svg viewBox="0 0 1618 1000" xmlns="http://www.w3.org/2000/svg">
  <defs><style>.g{fill:none;stroke:#777;stroke-width:3;opacity:.65}</style></defs>
  <!-- Golden rectangles -->
  <rect class="g" x="0" y="0" width="1000" height="1000"/>
  <rect class="g" x="1000" y="0" width="618" height="382"/>
  <rect class="g" x="1000" y="382" width="382" height="236"/>
  <rect class="g" x="1382" y="382" width="236" height="146"/>
  <rect class="g" x="1382" y="528" width="146" height="90"/>
  <rect class="g" x="1528" y="528" width="90" height="56"/>
  <!-- Spiral arcs -->
  <path class="g" d="M1000,1000 A1000,1000 0 0 0 0,0"/>
  <path class="g" d="M1618,382 A618,618 0 0 0 1000,1000"/>
  <path class="g" d="M1382,618 A382,382 0 0 0 1000,382"/>
  <path class="g" d="M1528,618 A236,236 0 0 0 1382,382"/>
  <path class="g" d="M1618,584 A146,146 0 0 0 1528,528"/>
  <path class="g" d="M1618,556 A90,90 0 0 0 1528,528"/>
</svg>