<svg viewBox="0 0 800 800" xmlns="http://www.w3.org/2000/svg">
  <defs><style>.l{fill:none;stroke:#777;stroke-width:3}.c{fill:none;stroke:#777;stroke-width:6}</style></defs>
  <!-- Lattice points -->
  <g id="pts">
    <circle class="c" cx="400" cy="400" r="18"/>
    <circle class="c" cx="400" cy="200" r="18"/>
    <circle class="c" cx="400" cy="600" r="18"/>
    <circle class="c" cx="200" cy="400" r="18"/>
    <circle class="c" cx="600" cy="400" r="18"/>
    <circle class="c" cx="275" cy="275" r="18"/>
    <circle class="c" cx="525" cy="275" r="18"/>
    <circle class="c" cx="275" cy="525" r="18"/>
    <circle class="c" cx="525" cy="525" r="18"/>
    <circle class="c" cx="150" cy="400" r="18"/>
    <circle class="c" cx="650" cy="400" r="18"/>
    <circle class="c" cx="400" cy="150" r="18"/>
    <circle class="c" cx="400" cy="650" r="18"/>
  </g>
  <!-- Connect all primary points to center (clean web) -->
  <g>
    <line class="l" x1="400" y1="400" x2="400" y2="200"/>
    <line class="l" x1="400" y1="400" x2="400" y2="600"/>
    <line class="l" x1="400" y1="400" x2="200" y2="400"/>
    <line class="l" x1="400" y1="400" x2="600" y2="400"/>
    <line class="l" x1="400" y1="400" x2="275" y2="275"/>
    <line class="l" x1="400" y1="400" x2="525" y2="275"/>
    <line class="l" x1="400" y1="400" x2="275" y2="525"/>
    <line class="l" x1="400" y1="400" x2="525" y2="525"/>
  </g>
  <!-- Outer connecting hexagon -->
  <polygon class="l" points="400,150 650,400 400,650 150,400 400,150"/>
  <!-- Inner connecting square -->
  <polygon class="l" points="275,275 525,275 525,525 275,525"/>
</svg>